<?xml version="1.0" standalone="no"?>
<!DOCTYPE svg PUBLIC "-//W3C//DTD SVG 20010904//EN"
 "http://www.w3.org/TR/2001/REC-SVG-20010904/DTD/svg10.dtd">
<svg version="1.0" xmlns="http://www.w3.org/2000/svg"
 width="640.000000pt" height="640.000000pt" viewBox="0 0 640.000000 640.000000"
 preserveAspectRatio="xMidYMid meet">
<metadata>
Created by potrace 1.14, written by Peter Selinger 2001-2017
</metadata>
<g transform="translate(0.000000,640.000000) scale(0.100000,-0.100000)"
fill="#000000" stroke="none">
<path d="M2408 5435 c-2 -2 -28 -6 -58 -9 -113 -13 -273 -54 -375 -97 -16 -7
-32 -13 -35 -14 -3 -1 -22 -9 -43 -18 -20 -9 -40 -16 -44 -16 -3 1 -9 -3 -12
-8 -3 -4 -33 -22 -66 -40 -261 -139 -521 -414 -650 -688 -20 -44 -42 -88 -47
-99 -14 -27 -56 -161 -73 -231 -30 -128 -34 -160 -40 -318 -5 -133 -8 -147
-28 -147 -7 0 -34 -12 -62 -25 -27 -14 -56 -25 -62 -25 -7 0 -13 -4 -13 -10 0
-5 -9 -10 -20 -10 -11 0 -20 -3 -20 -8 0 -4 -13 -13 -29 -20 -43 -19 -131 -78
-172 -114 -10 -10 -22 -18 -25 -18 -15 0 -216 -212 -260 -275 -140 -199 -224
-409 -262 -655 -16 -107 -6 -397 17 -478 5 -17 8 -32 5 -32 -3 0 0 -8 5 -19 6
-10 13 -33 16 -51 3 -18 11 -42 17 -54 6 -11 10 -22 9 -24 -5 -5 33 -98 73
-177 35 -72 101 -177 153 -244 40 -53 212 -220 268 -262 33 -24 62 -46 65 -49
6 -6 49 -29 155 -85 92 -48 274 -114 330 -120 6 -1 24 -4 40 -8 47 -11 95 -17
168 -22 37 -2 72 -7 77 -10 6 -3 10 -3 10 2 0 4 23 8 50 8 28 0 50 -3 50 -6 0
-3 20 -3 45 1 25 4 45 4 45 0 0 -4 20 -4 45 0 25 4 48 3 51 -2 3 -4 9 -6 14
-3 5 3 30 5 57 5 26 0 86 0 133 1 47 0 92 0 100 0 8 -1 35 -1 60 0 25 1 51 1
58 0 18 -2 38 -2 134 -1 49 1 92 -1 97 -5 5 -3 12 -1 15 3 3 5 26 6 51 2 25
-4 45 -4 45 0 0 4 20 4 45 0 25 -4 45 -4 45 0 0 4 20 4 45 0 25 -4 45 -4 45 0
0 4 20 4 45 0 25 -4 48 -3 51 2 3 4 10 6 15 3 5 -4 48 -6 97 -5 48 0 96 0 107
0 11 0 40 0 65 1 25 1 51 1 58 0 24 -2 171 -3 222 -1 14 1 49 2 78 3 28 1 52
-1 52 -4 0 -3 20 -3 45 1 25 4 45 4 45 0 0 -4 20 -4 45 0 25 4 48 3 51 -2 3
-4 9 -6 14 -3 5 3 30 5 57 5 26 0 86 0 133 1 47 0 92 0 100 0 8 -1 35 -1 60 0
25 1 51 1 58 0 18 -2 38 -2 134 -1 49 1 92 -1 97 -5 5 -3 12 -1 15 3 3 5 26 6
51 2 25 -4 45 -4 45 0 0 4 20 4 45 0 25 -4 45 -4 45 0 0 4 20 4 45 0 25 -4 45
-4 45 0 0 4 20 4 45 0 25 -4 48 -3 51 2 3 4 10 6 15 3 5 -4 48 -6 97 -5 48 0
96 0 107 0 11 0 40 0 65 1 25 1 51 1 58 0 6 0 18 -1 25 -2 23 -2 252 10 272
14 11 3 40 8 65 13 25 4 47 8 50 9 19 5 97 27 105 29 6 2 15 5 20 6 6 1 28 11
50 23 22 11 40 19 40 19 0 -1 10 1 23 4 12 4 22 10 22 15 0 5 3 8 8 7 16 -5
182 100 251 157 66 56 161 159 229 250 29 39 92 147 92 159 0 7 6 19 13 25 8
6 20 30 27 53 8 24 18 49 23 55 5 7 6 13 2 13 -4 0 -2 6 4 13 6 8 12 22 14 33
2 10 9 37 15 59 13 46 20 81 30 145 9 60 8 304 -1 360 -4 25 -9 59 -11 75 -2
17 -9 43 -15 58 -6 15 -13 42 -16 60 -4 17 -11 38 -18 46 -7 8 -11 15 -10 15
6 3 -14 56 -48 127 -86 178 -228 349 -384 464 -22 17 -41 33 -43 38 -2 4 -8 7
-14 7 -5 0 -22 8 -36 18 -28 20 -141 78 -179 93 -13 5 -33 13 -45 18 -42 17
-104 36 -153 46 -39 8 -39 8 -24 52 49 144 60 383 24 518 -8 33 -17 67 -20 75
-2 8 -4 16 -5 18 -2 1 -3 5 -5 10 -3 11 -24 62 -42 102 -20 43 -92 156 -122
190 -141 163 -308 268 -510 322 -94 25 -297 32 -394 14 -37 -7 -67 -11 -67 -8
0 2 -6 0 -12 -5 -7 -6 -26 -13 -43 -17 -42 -10 -162 -64 -210 -94 -21 -14 -41
-20 -42 -15 -5 13 -99 149 -138 199 -33 42 -197 206 -241 242 -201 161 -476
285 -724 327 -25 5 -56 10 -70 12 -28 5 -357 12 -362 8z"/>
</g>
</svg>
