<svg height="152" viewBox="0 0 306 152" width="306" xmlns="http://www.w3.org/2000/svg"><g fill="none" transform="translate(3 3)"><path d="m226.410191 145.572403c-20.1875 0-39.600863-8.532328-53.262069-23.409052-4.047414-4.407327-10.924569-15.05862-21.810776-32.0711204-13.30388-20.7918103-31.524569-49.2672414-40.890518-57.7142242-9.975862-8.9969827-23.4099133-14.1568965-36.8577582-14.1568965-30.3573276 0-55.0547413 24.6974138-55.0547413 55.0547414 0 30.3577587 24.6974137 55.0551727 55.0547413 55.0551727 13.3521552 0 26.2297414-4.839224 36.2599142-13.625862 7.114655-6.232759 12.402586-13.912931 16.636638-20.6043107 2.54612-4.0228448 7.871551-5.2198276 11.894396-2.674569 4.023276 2.5465518 5.22069 7.8715518 2.675 11.8948277-4.607327 7.280603-11.026724 16.628017-19.844827 24.353017-13.175432 11.541379-30.0879315 17.898276-47.6211212 17.898276-39.864224 0-72.29612059-32.432328-72.29612059-72.2965517 0-39.8642242 32.43189659-72.29612074 72.29612059-72.29612074 17.9185345 0 35.1090522 6.60387931 48.4047412 18.59482754 11.090517 10.0021552 28.503448 37.2150863 43.86638 61.2250001 8.234482 12.8685345 16.749137 26.1762928 19.9875 29.7021548 10.404741 11.330604 25.189224 17.829311 40.5625 17.829311 30.357327 0 55.055172-24.697414 55.055172-55.0551727 0-30.3573276-24.697845-55.0547414-55.055172-55.0547414-14.724138 0-29.668535 6.4155172-39.975863 17.1616379-2.238793 2.3340517-6.930603 8.4625-12.872844 16.8133621-2.760776 3.8788793-8.143104 4.7862069-12.021983 2.025431-3.87931-2.7599137-4.786638-8.1426724-2.025862-12.0219828 6.689655-9.4012931 11.561207-15.7103448 14.478017-18.7517241 13.696121-14.2788793 32.801724-22.46810344 52.418535-22.46810344 39.864655 0 72.296551 32.43189654 72.296551 72.29612074 0 39.8642237-32.431896 72.2965517-72.296551 72.2965517" fill="#eff5fe"/><path d="m226.410191 140.399989c-15.346983 0-31.736638-2.74612-47.227587-18.236638-4.231034-4.231034-10.924569-15.05862-21.810776-32.0711204-13.303879-20.7918103-31.109913-48.7961207-40.028448-57.7142242-13.869396-13.8693965-30.3064653-18.8982758-43.7543102-18.8982758-30.3573276 0-55.0547413 29.4387931-55.0547413 59.7961207 0 30.3577587 24.6974137 55.0551727 55.0547413 55.0551727 13.3521552 0 26.2297414-4.839224 36.2599142-13.625862 7.114655-6.232759 12.402586-13.912931 16.636638-20.6043107 2.54612-4.0228448 7.871551-5.2198276 11.894396-2.674569 4.023276 2.5465518 5.22069 7.8715518 2.675 11.8948277-4.607327 7.280603-9.733621 12.317672-18.551724 20.042672-13.175431 11.54138-29.6568966 17.898276-47.1900862 17.898276-39.8642241 0-67.98577582-28.121983-67.98577582-67.9862067 0-39.8642242 30.70775862-72.29612074 70.57198272-72.29612074 11.7556034 0 30.7987073 6.60387931 44.0943963 18.59482754 11.090517 10.0021552 28.503448 37.2150863 43.86638 61.2250001 8.234482 12.8685345 16.749137 26.1762928 19.9875 29.7021548 10.404741 11.330604 25.189224 17.829311 40.5625 17.829311 30.357327 0 61.520689-24.697414 61.520689-55.0551727 0-35.7758621-31.163362-60.2271552-61.520689-60.2271552-14.724138 0-27.944397 7.2775862-38.251725 18.0237069-2.238793 2.3340517-8.654741 12.7728448-14.596982 21.1237069-2.760776 3.8788793-8.143104 4.7862069-12.021983 2.025431-3.87931-2.7599137-4.786638-8.1426724-2.025862-12.0219828 6.689655-9.4012931 11.561207-15.7103448 14.478017-18.7517241 13.696121-14.2788793 32.801724-22.46810344 52.418535-22.46810344 39.864655 0 72.296551 32.43189654 72.296551 72.29612074 0 39.8642237-32.431896 67.1241377-72.296551 67.1241377" fill="#def3f9"/><path d="m226.790794 144.890938c-14.417241-.068966-28.562931-4.417242-40.468535-12.572414-5.040948-3.453018-9.8375-7.555604-13.692672-12.318104-2.878879-3.557327-5.418103-7.399138-7.948707-11.206465-7.976724-12.0017244-15.582758-24.246552-23.448276-36.3211209-7.200862-11.0538794-14.44181-22.1862069-22.652586-32.5267242-2.944396-3.7081897-6.034483-7.2198276-9.745259-10.1823276-5.590517-4.462931-12.0737064-7.7974138-18.9219823-9.8508621-12.150431-3.6426724-25.3392241-3.0267241-37.1120689 1.6771552-22.0741379 8.8198276-36.5172413 31.2262931-35.225431 54.9810345 1.2905173 23.7392241 18.3853448 44.5146551 41.3374999 50.5806031 12.7012931 3.356897 26.474138 2.112931 38.3788793-3.443534 6.4875-3.028017 12.295259-7.285345 17.259052-12.434052 5.02112-5.208189 8.872845-11.149138 12.918534-17.0978447 4.744397-6.9767241 15.059052-1.7956896 13.759483 6.0495687-.521121 3.144828-3.107328 6.104311-4.869397 8.675862-2.121982 3.097414-4.362931 6.113362-6.770689 8.995259-9.888793 11.836638-22.718104 20.701293-37.7129312 24.656897-25.0728449 6.613793-52.2767241-1.37888-69.9943965-20.235776-16.91767242-18.005604-23.4909483-43.9948279-17.08017242-67.8754314 6.29224142-23.4375 24.74870692-42.6862069 47.99827582-49.74051725 26.1357758-7.93060344 55.6698273.26767242 73.6413793 20.92112065 9.060345 10.412069 16.696121 22.1146553 24.264224 33.6250001 8.922845 13.5711207 17.456897 27.3965517 26.449138 40.9219829 3.013793 4.53319 5.968535 9.169827 9.889655 12.98319 4.921983 4.786637 10.713362 8.644827 17.029311 11.336206 11.763362 5.0125 25.090517 5.883621 37.402586 2.418535 22.744396-6.400862 39.671983-27.0452587 40.956465-50.7185346 1.289655-23.7685345-13.194396-46.1172414-35.320689-54.8163794-11.767242-4.6262931-24.966811-5.0336206-37.024138-1.2590517-12.102155 3.7887931-21.913793 11.1931035-29.555173 21.1737069-2.133189 2.7857759-4.20862 5.6155173-6.258189 8.4633621-2.37069 3.2939655-5.005604 6.4047414-9.534483 5.0849138-3.450431-1.0060345-5.842673-4.3862069-5.772845-7.9581896.07069-3.5831897 2.803017-6.4056035 4.796983-9.1474139 3.368103-4.6314655 6.743534-9.3594827 10.64181-13.5689655 4.909483-5.3017241 10.756466-9.7978448 17.047845-13.3375 23.560345-13.25474137 53.123707-11.80689654 75.294397 3.5961207 20.195689 14.0310345 32.039224 38.0090518 30.82112 62.5793104-1.203017 24.2732758-15.047414 46.7607758-36.186638 58.7612068-10.522414 5.973707-22.502586 9.080172-34.591379 9.130173-.899138.003879-2.162931 1.368103-.760776 1.362517 23.906897-.098724 46.63319-11.715535 60.451724-31.28838 14.163793-20.0612065 17.212931-46.6995685 7.851293-69.4219823-9.113362-22.1202587-29.100862-38.80387938-52.538793-43.68750007-25.766379-5.36810345-54.141379 3.81853448-71.138362 24.15301727-4.281465 5.1219827-8.444827 10.5495689-12.125862 16.1159482-3.13319 4.7383622-1.500431 11.2215518 3.810776 13.5599139 2.374138 1.0456896 5.106897 1.0603448 7.52931.1625 2.859483-1.0599138 4.417673-3.2284483 6.133621-5.6163793 3.5625-4.9581897 7.075431-10.1568966 11.285345-14.6025863 10.303017-10.8801724 25.583189-17.1900862 40.555172-16.6961207 12.614655.4159483 24.852155 5.3267242 34.264655 13.7375 18.981897 16.962069 23.811638 45.6625001 11.130173 67.8060343-6.093966 10.640949-15.767673 19.046121-27.18319 23.534052-13.114224 5.155603-28.086638 4.748276-40.975431-.901724-6.69181-2.933621-12.8-7.210776-17.804741-12.537069-3.80388-4.047845-6.740517-9.032328-9.777155-13.6525863-9.09569-13.8387931-17.819828-27.9181035-26.974569-41.7189655-7.442673-11.2202587-14.958621-22.7818966-24.160345-32.6685346-9.146121-9.8271551-21.509483-16.74137928-34.4866381-20.00560342-24.3262931-6.11853448-50.6284482.79396552-68.825431 18.03189652-17.68405171 16.7521552-25.96034483 41.7586208-21.67241379 65.7517242 4.21681036 23.5943961 20.44094829 44.0827591 42.36336199 53.7331901 24.800431 10.917241 54.525 7.031465 75.6926729-9.921121 5.815517-4.657328 10.857758-10.175431 15.334913-16.116379 2.107328-2.796552 4.092673-5.681466 5.996121-8.620259 1.57931-2.437931 2.928017-4.737069 2.628879-7.7538794-.552586-5.5659482-6.085345-9.112931-11.412931-8.0073275-2.459914.5107758-4.665086 1.875862-6.147414 3.9150862-2.115948 2.9103448-3.913362 6.0482758-6.053017 8.9512927-9.644827 13.084052-22.8974136 22.725-39.3349136 24.749569-12.9314655 1.592242-26.1534482-1.634913-36.9206896-8.959913-21.1124999-14.363363-29.6517241-42.4452591-19.7862068-66.0737074 10.3288793-24.7375 37.9780171-38.5538793 63.9172413-31.3094828 7.4021551 2.0672414 14.3836207 5.6771552 20.2965517 10.5935345 3.755603 3.1224138 6.856897 6.924138 9.839655 10.7698276 8.357328 10.7754311 15.809052 22.2676725 23.221983 33.7021552 7.820259 12.0625 15.377586 24.3056039 23.430172 36.2155169 2.318104 3.428449 4.644828 6.930173 7.394828 10.034483 4.511638 5.093104 9.915948 9.496983 15.69569 13.071121 11.535775 7.133189 24.942241 10.906034 38.493965 10.971138.901724.004293 2.164655-1.355621.760776-1.362517" fill="#eff5fe" stroke="#2196f3" stroke-width="5"/></g></svg>