<svg height="570" viewBox="0 0 965 570" width="965" xmlns="http://www.w3.org/2000/svg"><g fill="none" fill-rule="evenodd"><g transform="translate(46 75)"><path d="m131.171547 490.0113 279.821032-74.870571c11.34871-3.037056 18.083033-14.684324 15.043355-26.016753l-100.189161-373.3735494c-3.041419-11.33242961-14.705419-18.05709159-26.054129-15.02177468l-279.8227743 74.87057038c-11.34696776 3.0370564-18.08303227 14.684324-15.04161292 26.0167537l100.18916122 373.373549c3.039677 11.33243 14.705419 18.057092 26.054129 15.021775" fill="#eff5fe"/><path d="m239.004321 14.8859266c-43.004903 11.5063732-86.009806 23.0144859-129.016451 34.5208591-25.1169681 6.7194437-50.2339358 13.4406268-75.3526455 20.1618099-16.8619355 4.5120986-38.94793546 10.0835141-33.9032903 33.2128024 7.10883871 32.590085 17.3897419 64.802712 26.0314839 97.01012 15.8341935 59.010387 31.6683871 118.020775 47.5025806 177.029423 8.8420645 32.950148 16.3741936 66.616943 26.6115483 99.1705 4.285161 13.628486 17.610968 19.135542 30.940258 15.954112 3.809613-.909725 7.579161-2.028183 11.360903-3.040535 21.188904-5.668824 42.377807-11.337648 63.56671-17.006472 56.508387-15.120922 113.016774-30.240105 169.525161-45.359288 11.730194-3.139684 23.60671-5.955831 35.242839-9.431226 13.306645-3.971134 21.795097-15.564479 18.614323-29.535634-.890129-3.906774-2.085097-7.768324-3.123291-11.635091-13.324064-49.653958-26.646387-99.307916-39.970451-148.961873-12.770129-47.587507-25.538516-95.175014-38.308645-142.7625215-.733355-2.732655-1.46671-5.4670493-2.200065-8.1997042-.735097-2.7430916-9.155613-.5166127-8.413548 2.2508309 9.024967 33.6267888 18.048193 67.2553168 27.071419 100.8821058 14.827355 55.256683 29.652968 110.513366 44.480323 165.76831 3.851419 14.350352 7.833483 28.672873 11.554258 43.056274 2.635548 10.19136.243871 21.205472-10.918452 25.246183-3.51 1.271529-7.35271 1.967303-10.955032 2.932691-49.070323 13.129267-98.140645 26.258535-147.210968 39.387802-26.547097 7.10212-53.094194 14.205979-79.64129 21.309838-13.494774 3.609331-27.243871 8.505846-41.006904 10.970627-18.269419 3.27362-21.903096-12.993591-25.402645-26.030669-4.769419-17.777042-9.5388384-35.552345-14.3099997-53.327648-15.0067742-55.931584-30.0152903-111.861429-45.0238064-167.793014-11.6239355-43.320669-23.247871-86.641338-34.8735484-129.962007-3.52567743-13.1379646-6.67509678-28.1145139 10.6205806-33.6720139 17.3200646-5.5644577 35.3734839-9.4642746 52.9443871-14.1659718 51.3505158-13.7398099 102.7027738-27.4796197 154.0532908-41.2194296 3.522193-.9427746 7.044387-1.8855493 10.56658-2.8265845 5.002839-1.3393662 3.997742-5.2861479-1.055613-3.9346056" fill="#2196f3" stroke="#2196f3" stroke-width="4"/></g><path d="m349.029583 166.403012c-35.884799 9.652829-71.77134 19.303909-107.65788 28.956737-4.828067 1.299049-4.331675 3.563207.597412 2.237932 35.886541-9.652829 71.773081-19.305657 107.65788-28.956737 4.829809-1.29905 4.333417-3.564955-.597412-2.237932" fill="#2196f3"/><path d="m362.631696 217.27284c-70.305907 18.83454-140.610072 37.669081-210.915979 56.503621-9.81118 2.629169-19.624103 5.258338-29.435283 7.885765-5.020606 1.345076-3.978495 5.422118 1.089163 4.064846 70.304164-18.83454 140.610071-37.66908 210.914236-56.50362 9.812923-2.627427 19.624103-5.256597 29.437026-7.885766 5.018863-1.343333 3.976752-5.422117-1.089163-4.064846" fill="#2196f3"/><path d="m762.357819 547.270962-279.598434-74.910245c-11.339611-3.038666-18.068534-14.692105-15.029553-26.03054l100.108837-373.5714041c3.03724-11.3384348 14.69363-18.0666602 26.0315-15.0297349l300.129831 80.411518-105.60894 394.100671c-3.038981 11.338435-14.69363 18.06666-26.033241 15.029735" fill="#eff5fe"/><path d="m404.397507 374.234045c-70.249459 18.843159-140.500659 37.686319-210.750118 56.529479-9.805287 2.630372-19.608833 5.259002-29.41412 7.889374-5.121178 1.373581-3.780373 6.494877 1.368665 5.11258 70.2512-18.843159 140.500659-37.686319 210.751859-56.529479 9.803546-2.628629 19.608834-5.259002 29.41238-7.889375 5.121177-1.37358 3.782113-6.493133-1.368666-5.112579" fill="#2196f3"/><path d="m418.857362 427.331255c-70.356917 18.81266-140.712091 37.625321-211.069009 56.437981-9.818299 2.626115-19.638342 5.25049-29.456641 7.876605-4.916125 1.313928-4.178444 4.357715.810926 3.022904 70.356917-18.81266 140.712091-37.625321 211.069009-56.437981 9.818299-2.624375 19.638342-5.25049 29.456641-7.876605 4.916125-1.313928 4.178444-4.357715-.810926-3.022904" fill="#2196f3"/><path d="m378.954089 326.396183-216.806185 58.184257c-6.507724 1.74729-13.196702-2.122583-14.941274-8.640449l-6.788318-25.371499c-1.742829-6.519611 2.11928-13.219014 8.627003-14.964559l216.806186-58.184257c6.507723-1.747291 13.198444 2.120837 14.941273 8.640449l6.788319 25.371499c1.744571 6.517865-2.11928 13.219013-8.627004 14.964559" fill="#2196f3"/><g fill="#2196f3"><g transform="matrix(.97437006 -.22495105 .22495105 .97437006 402.100569 173.881548)"><path d="m30.8138248 27.8536898c15.6883228-.5196601 31.4502081.8105487 46.974892 3.0308461 14.9834743 2.1430301 29.9737042 5.1435752 44.3446582 9.9970195 1.405944.4749664 4.26212-1.5771611 2.138566-2.293777-14.632926-4.9420744-29.9159049-7.9706478-45.1726112-10.1523116-15.8407022-2.2657486-31.8960868-3.5550513-47.9011787-3.0255433-1.9711739.0651469-2.8674351 2.5255787-.3843263 2.4437663"/><path d="m49.3711319 54.4727654c12.6957645.9311054 25.4306878 2.638132 37.7393817 6.100237 1.4180037.3985951 4.2961822-1.7810738 2.1454554-2.386056-12.5752755-3.5369401-25.5993722-5.3101366-38.570002-6.2617231-1.639402-.1197361-3.7728086 2.3671503-1.3148351 2.5475421"/><path d="m1.61427547 2.80474376c14.36718653-.83093444 28.77527353-.21204069 43.09784143.94026793 1.625604.13120017 3.7241651-1.9474612 1.298401-2.14227358-14.6252307-1.17682582-29.3456478-1.78379229-44.01549711-.93562953-1.93793417.11198398-2.84592251 2.28010002-.38074532 2.13763518"/></g><path d="m674.768976 83.3586182c-.297977 0-.601183-.0382908-.904388-.1200939l-42.077554-11.2627234c-1.859309-.4960402-2.962349-2.4053599-2.463977-4.2624648.496629-1.8553644 2.399503-2.9623173 4.267525-2.4610556l42.079297 11.2609829c1.859309.4977807 2.962349 2.4071004 2.463977 4.2642053-.418214 1.5542593-1.826201 2.5811495-3.36488 2.5811495zm-110.493876 6.3371312c-.297977 0-.601182-.0382908-.904387-.1200939-1.85931-.4960402-2.962349-2.4053599-2.463978-4.2624648l3.479889-12.973627c2.896132-10.7980121 12.727646-18.3395637 23.906157-18.3395637.878249 0 1.765211.0469933 2.63649.1409798 1.913329.2071186 3.296921 1.9232437 3.089556 3.8360443-.205622 1.9110602-1.932497 3.2895298-3.838856 3.0858922-.622093-.0678791-1.258127-.1009485-1.88719-.1009485-8.029709 0-15.090555 5.4198919-17.172912 13.1790051l-3.481631 12.973627c-.416472 1.5559998-1.824459 2.5811495-3.363138 2.5811495zm194.654211 16.1848346c-.297977 0-.601182-.038291-.904387-.118353l-42.079297-11.2627238c-1.861052-.4960402-2.962349-2.4053599-2.463977-4.2624648.496629-1.8553644 2.396018-2.9675388 4.267525-2.4610556l42.079296 11.2609829c1.861053.4977807 2.964092 2.4071003 2.46572 4.2642053-.418214 1.554259-1.824458 2.579409-3.36488 2.579409zm84.158593 22.523706c-.297977 0-.601182-.03829-.904387-.118353l-42.079297-11.262723c-1.861052-.496041-2.962349-2.40536-2.463977-4.262465.496629-1.855365 2.399502-2.962318 4.267525-2.461056l42.079296 11.260983c1.861053.497781 2.964092 2.4071 2.463978 4.262465-.416472 1.556-1.822716 2.581149-3.363138 2.581149zm-301.364992 45.351999c-.297978 0-.601183-.038291-.902645-.120094-1.861053-.49778-2.962349-2.4071-2.463978-4.264205l11.274352-42.0294c.500114-1.855364 2.413443-2.960576 4.269268-2.461055 1.859309.49778 2.962349 2.4071 2.463977 4.264205l-11.276094 42.0294c-.416472 1.554259-1.826201 2.581149-3.36488 2.581149zm341.3811 10.070487c-.297978 0-.602925-.038291-.904388-.120094-1.85931-.497781-2.962349-2.407101-2.463977-4.262465l5.684225-21.185268c.404273-1.514228.609895-3.068487.609895-4.615785 0-4.516576-1.711192-8.829515-4.818174-12.146893-1.315631-1.404577-1.242444-3.606299.162058-4.920371 1.404502-1.314071 3.610581-1.242711 4.926213.161866 4.321544 4.612304 6.700136 10.617001 6.700136 16.905398 0 2.154729-.28578 4.312939-.846883 6.415454l-5.685968 21.187008c-.416471 1.554259-1.824458 2.58115-3.363137 2.58115zm-363.929804 73.988312c-.297977 0-.602925-.03829-.904388-.120093-1.859309-.497781-2.962349-2.40536-2.463977-4.262465l11.276094-42.03114c.498372-1.855365 2.402988-2.960577 4.267525-2.461056 1.861053.497781 2.96235 2.4071 2.463978 4.264205l-11.274352 42.0294c-.418214 1.556-1.824458 2.581149-3.36488 2.581149zm341.379358 10.070487c-.297978 0-.602926-.038291-.902646-.120094-1.861052-.49604-2.964091-2.40536-2.463977-4.262465l11.274352-42.029399c.496629-1.855365 2.409958-2.964058 4.267525-2.461056 1.861052.497781 2.964092 2.40536 2.46572 4.262465l-11.276094 42.029399c-.416472 1.556-1.824459 2.58115-3.36488 2.58115zm-363.929804 73.988313c-.297978 0-.601183-.038291-.904388-.120094-1.85931-.49604-2.962349-2.40536-2.463977-4.262465l11.276094-42.0294c.498372-1.857105 2.409958-2.962317 4.267525-2.461055 1.85931.49604 2.962349 2.40536 2.463978 4.262465l-11.276095 42.029399c-.416471 1.556-1.824458 2.58115-3.363137 2.58115zm341.379357 10.070486c-.297977 0-.601182-.038291-.904387-.118353-1.85931-.497781-2.962349-2.407101-2.463978-4.264206l11.276095-42.029399c.496629-1.855365 2.399502-2.962318 4.267525-2.461056 1.859309.49604 2.962349 2.40536 2.463977 4.262465l-11.276094 42.03114c-.416472 1.554259-1.824459 2.579409-3.363138 2.579409zm-363.929803 73.990053c-.297978 0-.602926-.03829-.902646-.120093-1.861052-.497781-2.964091-2.407101-2.463977-4.262465l11.274352-42.03114c.498372-1.857105 2.402988-2.962318 4.267525-2.461056 1.861052.497781 2.964092 2.40536 2.463977 4.262465l-11.274351 42.03114c-.416472 1.554259-1.826201 2.581149-3.36488 2.581149zm341.379357 10.070487c-.297977 0-.59944-.038291-.902645-.120094-1.861052-.497781-2.962349-2.40536-2.463977-4.262465l11.274351-42.03114c.498372-1.855364 2.409958-2.964058 4.269268-2.461056 1.85931.497781 2.962349 2.407101 2.463977 4.262465l-11.276094 42.03114c-.416471 1.55426-1.826201 2.58115-3.36488 2.58115zm-305.430381 47.694701c-.297977 0-.601182-.038291-.904388-.120094l-27.445292-7.344876c-5.738244-1.535114-10.734159-5.080496-14.069415-9.981721-1.082129-1.59081-.669142-3.755982.925298-4.836828 1.589213-1.082586 3.760441-.666608 4.840827.924202 2.396018 3.521015 5.983945 6.067355 10.10858 7.170826l27.445293 7.344877c1.859309.49778 2.962349 2.405359 2.463977 4.262464-.418214 1.556-1.826201 2.58115-3.36488 2.58115zm84.158593 22.523706c-.297977 0-.601183-.038291-.904388-.120094l-42.077554-11.262723c-1.859309-.49604-2.962349-2.40536-2.463977-4.262465.498372-1.855364 2.411701-2.964058 4.267525-2.461056l42.079297 11.262724c1.859309.497781 2.962349 2.40536 2.463977 4.262465-.418214 1.555999-1.824458 2.581149-3.36488 2.581149zm198.721342 13.840392c-.297978 0-.601183-.038291-.904388-.120094-1.859309-.49778-2.962349-2.40536-2.463977-4.262465l11.276094-42.029399c.496629-1.855365 2.404731-2.962317 4.267525-2.461056 1.861053.49604 2.962349 2.40536 2.463978 4.262465l-11.274352 42.0294c-.418214 1.554259-1.824459 2.581149-3.36488 2.581149zm-114.561007 8.683315c-.297977 0-.601182-.038291-.904387-.120094l-42.079297-11.262724c-1.861052-.49604-2.962349-2.40536-2.463977-4.262465.496629-1.857105 2.408215-2.965798 4.267525-2.461055l42.079296 11.262723c1.861053.49604 2.964092 2.40536 2.463978 4.262465-.416472 1.556-1.824459 2.58115-3.363138 2.58115zm89.679018 23.252972c-2.162515 0-4.323287-.285441-6.426555-.84936l-42.077554-11.262723c-1.861052-.496041-2.964091-2.40536-2.463977-4.262465.498371-1.855365 2.402988-2.964058 4.267525-2.461056l42.079296 11.262724c1.800063.482116 3.652402.684013 5.499514.588286 1.911587-.07136 3.560047 1.38021 3.655887 3.299973.099326 1.919762-1.380106 3.555825-3.302148 3.653292-.409501.020886-.820744.031329-1.231988.031329z" stroke="#2196f3" stroke-width="5"/><g transform="translate(0 301)"><path d="m34.1738277 13.5177271c9.6079345-3.94211616 19.3279967-7.55497743 29.1594077-10.84264867 2.2417735-.74956302 1.6655622-3.19499207-.6237098-2.42998252-10.1600073 3.39823585-20.2071082 7.13548231-30.136631 11.20930049-2.4123009.9893906-.2608524 2.8267143 1.6009331 2.0633307"/><path d="m2.6936731 62.8177793c22.8351712-8.9419408 45.9717889-17.1636001 69.3846672-24.6418393 2.2470759-.7180424 1.6756653-2.9677093-.6304406-2.2310068-23.7434463 7.5842288-47.2137804 15.9103849-70.37243609 24.9784683-2.42023063.9479353-.258945 2.6295875 1.61820949 1.8943778"/><path d="m74.9363357 56.3334148c-7.78677 2.4032128-15.4854828 5.0513834-23.1000695 7.937557-2.4420141.9257392-.2641715 2.6736709 1.6164781 1.9612071 7.2898759-2.7633084 14.6591605-5.2893864 22.1133574-7.5890525 2.2698308-.7008727 1.6840934-3.0237209-.629766-2.3097116"/></g></g><g transform="translate(825 68)"><path d="m87.6688965 2.38941243c-37.1456666-9.95181481-75.3253333 12.09118517-85.27888885 49.23511107v.0017408c-9.95355555 37.1439259 12.09118515 75.3253337 49.23511115 85.2771477 37.1456666 9.953556 75.3270742-12.089444 85.2788892-49.2351107 9.953555-37.1456666-12.089445-75.3253333-49.2351115-85.27888887" fill="#e3e3e3"/><g fill="#2196f3" transform="translate(17.682491 28.2761)"><path d="m78.4098498 46.8710529c2.2995186 3.0288889 4.5990371 6.0577778 6.8968149 9.0866667 1.5823333 2.0819259 4.8375185 1.3351481 6.6513703.1201111 3.3021852-2.2124815 6.6043704-4.424963 9.908296-6.6374445 1.577111-1.0566296 1.977482-3.243.417778-4.4667407-1.733778-1.363-4.4110369-.6127408-6.0368888.4752222-3.3021852 2.2124815-6.6043704 4.424963-9.9065555 6.6374445 2.2159629.040037 4.4336666.080074 6.6496296.1201111-2.2977778-3.0288889-4.5972963-6.0577778-6.8968148-9.0866667-2.3726297-3.1246296-10.3574074.2297778-7.6836297 3.7512963"/><path d="m93.5281832 52.8365714c5.8332222-20.1299259-3.625963-41.6106667-23.3555185-49.66507406-17.7015926-7.22581481-37.9620741-1.6067037-50.9932593 11.80744446-2.249037 2.3151852 6.0281852 1.7215926 7.7637037-.0644074 13.5255556-13.92244447 34.6494444-13.43155558 48.4361111-.094 10.5958889 10.2512222 13.8197407 25.2511852 9.7777407 39.198-.7589629 2.6145926 7.6105186 1.4465555 8.3712223-1.181963"/><path d="m9.81073873 31.7857936c-4.42496297 19.3535556 4.66866667 39.1614445 22.74799997 47.7711482 18.0218889 8.5818518 38.9960741 3.3126296 52.3841111-10.9179259 3.6294445-3.8574815-4.4058148-5.4102223-7.0639259-2.585-12.2356667 13.0068148-31.7894074 15.0695926-46.2027407 4.1742963-12.1834445-9.2102593-16.6745556-24.4504445-13.3375556-39.0448149.9539259-4.1708148-7.6557778-3.2116666-8.52788887.6022963"/><path d="m24.8768498 38.4145344c-2.2995185-3.0288889-4.599037-6.0577778-6.8985555-9.0866667-1.4865926-1.9600741-4.9576296-1.0635926-6.6061111.0417778-3.30218521 2.2124815-6.60611114 4.4232222-9.90829632 6.6357037-1.47440741.9887407-2.11151852 2.9279259-.51874074 4.0994444 1.68329629 1.235926 4.46325925.4647778 6.01077777-.5727037 3.30392589-2.2124814 6.60611109-4.4249629 9.90829629-6.6374444-2.202037.0139259-4.4058148.0278518-6.6078518.040037 2.2995185 3.0288889 4.599037 6.0577778 6.8985555 9.0866667 2.1654815 2.8530741 10.2129259-.3272593 7.7219259-3.6068148"/></g></g><path d="m348.517467 2.38507622c-37.067391 9.93253778-59.063941 48.03158508-49.133097 85.09881558 9.932581 37.0654932 48.031793 59.0636852 85.099184 49.1311472s59.06394-48.031585 49.131359-85.0988156c-9.930843-37.0672306-48.031792-59.063685-85.097446-49.13114718" fill="#2196f3"/><g fill="#eff5fe"><path d="m329.94185 83.6590836c25.084462-6.7665468 50.167193-13.5330937 75.249923-20.2996405 7.671286-2.0690085 5.57471-10.0992716-2.134663-8.0180617-25.082731 6.7665468-50.165461 13.5330937-75.248192 20.2996405-7.671285 2.0690086-5.576441 10.0975286 2.132932 8.0180617"/><path d="m350.117012 33.1691282c6.733234 25.352166 13.466468 50.7060819 20.199701 76.0582478 1.450022 5.454356 14.0215 2.08235 12.566275-3.396504-6.733234-25.3539161-13.466467-50.7060821-20.201436-76.0582481-1.448287-5.4543555-14.019765-2.0823494-12.56454 3.3965043"/></g></g></svg>