<svg height="170" viewBox="0 0 406 170" width="406" xmlns="http://www.w3.org/2000/svg"><g fill="none" fill-rule="evenodd" transform="translate(58 31)"><path d="m253.202 106.999h-206.702c-20.71 0-37.5-16.789-37.5-37.5v-23c0-20.71 16.79-37.5 37.5-37.5h206.702c20.711 0 37.5 16.79 37.5 37.5v23c0 20.711-16.789 37.5-37.5 37.5" fill="#eff5fe"/><g fill="#2196f3"><path d="m39.5 4c-19.574 0-35.5 15.925-35.5 35.5v23c0 19.574 15.926 35.5 35.5 35.5h206.702c19.575 0 35.5-15.926 35.5-35.5v-23c0-19.575-15.925-35.5-35.5-35.5zm206.702 98h-206.702c-21.78 0-39.5-17.72-39.5-39.5v-23c0-21.781 17.72-39.5 39.5-39.5h206.702c21.78 0 39.5 17.719 39.5 39.5v23c0 21.78-17.72 39.5-39.5 39.5z"/><path d="m41.01 73.094c-1.381 0-2.5-1.119-2.5-2.5v-39.189c0-1.381 1.119-2.5 2.5-2.5s2.5 1.119 2.5 2.5v39.189c0 1.381-1.119 2.5-2.5 2.5"/><path d="m54.865 67.355c-.639 0-1.28-.244-1.767-.732l-27.712-27.712c-.976-.976-.976-2.559 0-3.535.976-.977 2.56-.977 3.535 0l27.712 27.711c.976.976.976 2.56 0 3.536-.488.488-1.128.732-1.768.732"/><path d="m60.604 53.5h-39.189c-1.381 0-2.5-1.12-2.5-2.5 0-1.381 1.119-2.5 2.5-2.5h39.189c1.381 0 2.5 1.119 2.5 2.5 0 1.38-1.119 2.5-2.5 2.5"/><path d="m27.154 67.355c-.64 0-1.28-.244-1.768-.732-.976-.976-.976-2.56 0-3.536l27.712-27.711c.975-.977 2.559-.977 3.535 0 .976.976.976 2.559 0 3.535l-27.712 27.712c-.487.488-1.128.732-1.767.732"/><path d="m91.693 73.094c-1.381 0-2.5-1.119-2.5-2.5v-39.189c0-1.381 1.119-2.5 2.5-2.5s2.5 1.119 2.5 2.5v39.189c0 1.381-1.119 2.5-2.5 2.5"/><path d="m105.548 67.355c-.639 0-1.279-.244-1.767-.732l-27.711-27.712c-.977-.976-.977-2.559 0-3.535.975-.977 2.559-.977 3.535 0l27.711 27.711c.976.976.976 2.56 0 3.536-.488.488-1.128.732-1.768.732"/><path d="m111.288 53.5h-39.19c-1.381 0-2.5-1.12-2.5-2.5 0-1.381 1.119-2.5 2.5-2.5h39.19c1.38 0 2.5 1.119 2.5 2.5 0 1.38-1.12 2.5-2.5 2.5"/><path d="m77.837 67.355c-.639 0-1.279-.244-1.767-.732-.977-.976-.977-2.56 0-3.536l27.711-27.711c.976-.977 2.558-.977 3.535 0 .976.976.976 2.559 0 3.535l-27.711 27.712c-.488.488-1.128.732-1.768.732"/><path d="m142.376 73.094c-1.38 0-2.5-1.119-2.5-2.5v-39.189c0-1.381 1.12-2.5 2.5-2.5 1.381 0 2.5 1.119 2.5 2.5v39.189c0 1.381-1.119 2.5-2.5 2.5"/><path d="m156.232 67.355c-.64 0-1.279-.244-1.768-.732l-27.711-27.712c-.976-.976-.976-2.559 0-3.535.977-.977 2.559-.977 3.536 0l27.711 27.711c.976.976.976 2.56 0 3.536-.489.488-1.128.732-1.768.732"/><path d="m161.971 53.5h-39.189c-1.381 0-2.5-1.12-2.5-2.5 0-1.381 1.119-2.5 2.5-2.5h39.189c1.381 0 2.5 1.119 2.5 2.5 0 1.38-1.119 2.5-2.5 2.5"/><path d="m128.521 67.355c-.64 0-1.279-.244-1.768-.732-.976-.976-.976-2.56 0-3.536l27.711-27.711c.977-.977 2.559-.977 3.536 0 .976.976.976 2.559 0 3.535l-27.711 27.712c-.489.488-1.128.732-1.768.732"/><path d="m194.009 73.094c-1.381 0-2.5-1.119-2.5-2.5v-39.189c0-1.381 1.119-2.5 2.5-2.5s2.5 1.119 2.5 2.5v39.189c0 1.381-1.119 2.5-2.5 2.5"/><path d="m207.865 67.355c-.64 0-1.28-.244-1.768-.732l-27.711-27.712c-.976-.976-.976-2.559 0-3.535.977-.977 2.559-.977 3.535 0l27.711 27.711c.977.976.977 2.56 0 3.536-.488.488-1.128.732-1.767.732"/><path d="m213.604 53.5h-39.189c-1.381 0-2.5-1.12-2.5-2.5 0-1.381 1.119-2.5 2.5-2.5h39.189c1.381 0 2.5 1.119 2.5 2.5 0 1.38-1.119 2.5-2.5 2.5"/><path d="m180.154 67.355c-.64 0-1.279-.244-1.768-.732-.976-.976-.976-2.56 0-3.536l27.711-27.711c.977-.977 2.559-.977 3.535 0 .977.976.977 2.559 0 3.535l-27.711 27.712c-.488.488-1.128.732-1.767.732"/><path d="m244.693 73.094c-1.381 0-2.5-1.119-2.5-2.5v-39.189c0-1.381 1.119-2.5 2.5-2.5s2.5 1.119 2.5 2.5v39.189c0 1.381-1.119 2.5-2.5 2.5"/><path d="m258.548 67.355c-.639 0-1.279-.244-1.767-.732l-27.711-27.712c-.977-.976-.977-2.559 0-3.535.976-.977 2.558-.977 3.535 0l27.711 27.711c.976.976.976 2.56 0 3.536-.488.488-1.128.732-1.768.732"/><path d="m264.288 53.5h-39.19c-1.381 0-2.5-1.12-2.5-2.5 0-1.381 1.119-2.5 2.5-2.5h39.19c1.38 0 2.5 1.119 2.5 2.5 0 1.38-1.12 2.5-2.5 2.5"/><path d="m230.837 67.355c-.639 0-1.279-.244-1.767-.732-.977-.976-.977-2.56 0-3.536l27.711-27.711c.976-.977 2.558-.977 3.535 0 .976.976.976 2.559 0 3.535l-27.711 27.712c-.488.488-1.128.732-1.768.732"/></g></g></svg>